<svg width="122" height="19" viewBox="0 0 122 19" fill="none" xmlns="http://www.w3.org/2000/svg">
<path d="M5.54228 18.24C4.79028 18.24 4.17828 18.088 3.70628 17.784C3.23428 17.472 2.88628 17.076 2.66228 16.596C2.43828 16.116 2.32628 15.616 2.32628 15.096V8.448H0.622281L0.886281 6H2.32628V3.36L5.30228 3.048V6H7.94228V8.448H5.30228V13.872C5.30228 14.48 5.33828 14.92 5.41028 15.192C5.48228 15.456 5.64628 15.624 5.90228 15.696C6.15828 15.76 6.56628 15.792 7.12628 15.792H7.94228L7.67828 18.24H5.54228ZM15.6643 18.24C14.2163 18.24 13.0083 17.952 12.0403 17.376C11.0803 16.792 10.3603 16.024 9.88028 15.072C9.40028 14.112 9.16028 13.064 9.16028 11.928C9.16028 10.832 9.38428 9.82 9.83228 8.892C10.2883 7.964 10.9523 7.22 11.8243 6.66C12.6963 6.092 13.7603 5.808 15.0163 5.808C16.1683 5.808 17.1283 6.044 17.8963 6.516C18.6643 6.988 19.2403 7.62 19.6243 8.412C20.0083 9.196 20.2003 10.064 20.2003 11.016C20.2003 11.28 20.1843 11.548 20.1523 11.82C20.1203 12.084 20.0723 12.36 20.0083 12.648H12.2563C12.3683 13.392 12.6003 13.996 12.9523 14.46C13.3123 14.916 13.7483 15.252 14.2603 15.468C14.7803 15.684 15.3363 15.792 15.9283 15.792C16.6243 15.792 17.2723 15.704 17.8723 15.528C18.4723 15.344 19.0243 15.104 19.5283 14.808L19.6723 17.328C19.2163 17.568 18.6483 17.78 17.9683 17.964C17.2883 18.148 16.5203 18.24 15.6643 18.24ZM12.3283 10.632H17.1763C17.1763 10.272 17.1083 9.912 16.9723 9.552C16.8363 9.184 16.6083 8.876 16.2883 8.628C15.9763 8.38 15.5523 8.256 15.0163 8.256C14.2483 8.256 13.6443 8.48 13.2043 8.928C12.7643 9.376 12.4723 9.944 12.3283 10.632ZM24.8238 18.24C24.1838 18.24 23.5998 18.1 23.0718 17.82C22.5438 17.532 22.1238 17.12 21.8118 16.584C21.4998 16.048 21.3438 15.4 21.3438 14.64C21.3438 13.96 21.4998 13.38 21.8118 12.9C22.1318 12.412 22.5478 12.008 23.0598 11.688C23.5798 11.36 24.1398 11.104 24.7398 10.92C25.3478 10.728 25.9438 10.588 26.5278 10.5C27.1198 10.412 27.6398 10.36 28.0878 10.344C28.0558 9.656 27.8798 9.156 27.5598 8.844C27.2398 8.532 26.6958 8.376 25.9278 8.376C25.3918 8.376 24.8678 8.452 24.3558 8.604C23.8518 8.748 23.2798 8.976 22.6398 9.288L22.3758 6.864C23.0958 6.512 23.8158 6.248 24.5358 6.072C25.2638 5.896 25.9998 5.808 26.7438 5.808C27.6398 5.808 28.4118 5.968 29.0598 6.288C29.7078 6.608 30.2078 7.124 30.5598 7.836C30.9118 8.54 31.0878 9.472 31.0878 10.632V13.872C31.0878 14.472 31.1158 14.908 31.1718 15.18C31.2278 15.444 31.3318 15.612 31.4838 15.684C31.6358 15.756 31.8558 15.792 32.1438 15.792H32.5278L32.2638 18.24H31.1838C30.7358 18.24 30.3358 18.18 29.9838 18.06C29.6398 17.948 29.3438 17.788 29.0958 17.58C28.8478 17.372 28.6478 17.128 28.4958 16.848C28.1038 17.288 27.5718 17.632 26.8998 17.88C26.2358 18.12 25.5438 18.24 24.8238 18.24ZM26.0718 15.96C26.3358 15.96 26.6638 15.892 27.0558 15.756C27.4478 15.612 27.7998 15.392 28.1118 15.096V12.36C27.5518 12.384 26.9918 12.476 26.4318 12.636C25.8718 12.796 25.4038 13.032 25.0278 13.344C24.6518 13.656 24.4638 14.048 24.4638 14.52C24.4638 15.008 24.5918 15.372 24.8478 15.612C25.1038 15.844 25.5118 15.96 26.0718 15.96ZM34.185 18V6H36.729L36.921 7.752L36.489 7.224C36.945 6.864 37.489 6.54 38.121 6.252C38.761 5.956 39.505 5.808 40.353 5.808C40.993 5.808 41.557 5.904 42.045 6.096C42.541 6.28 42.965 6.548 43.317 6.9C43.669 7.244 43.953 7.656 44.169 8.136L43.449 7.968C43.833 7.28 44.393 6.748 45.129 6.372C45.873 5.996 46.713 5.808 47.649 5.808C48.753 5.808 49.653 6.036 50.349 6.492C51.045 6.948 51.557 7.592 51.885 8.424C52.213 9.248 52.377 10.216 52.377 11.328V18H49.401V11.544C49.401 10.424 49.225 9.596 48.873 9.06C48.529 8.524 47.953 8.256 47.145 8.256C46.745 8.256 46.393 8.328 46.089 8.472C45.793 8.608 45.545 8.812 45.345 9.084C45.153 9.348 45.009 9.672 44.913 10.056C44.817 10.432 44.769 10.856 44.769 11.328V18H41.793V11.544C41.793 10.8 41.713 10.184 41.553 9.696C41.401 9.208 41.153 8.848 40.809 8.616C40.473 8.376 40.033 8.256 39.489 8.256C38.793 8.256 38.221 8.42 37.773 8.748C37.333 9.068 36.945 9.504 36.609 10.056L37.161 8.448V18H34.185ZM65.9327 18.24C64.5567 18.24 63.4007 17.96 62.4647 17.4C61.5367 16.832 60.8327 16.08 60.3527 15.144C59.8807 14.2 59.6447 13.16 59.6447 12.024C59.6447 10.88 59.8807 9.836 60.3527 8.892C60.8247 7.94 61.5327 7.18 62.4767 6.612C63.4207 6.044 64.6047 5.76 66.0287 5.76C66.7007 5.76 67.3087 5.836 67.8527 5.988C68.3967 6.132 68.8607 6.312 69.2447 6.528L69.0047 8.928C68.6367 8.736 68.2207 8.576 67.7567 8.448C67.3007 8.32 66.8207 8.256 66.3167 8.256C65.1647 8.256 64.2727 8.604 63.6407 9.3C63.0087 9.996 62.6927 10.904 62.6927 12.024C62.6927 13.088 63.0167 13.984 63.6647 14.712C64.3127 15.432 65.1887 15.792 66.2927 15.792C66.7647 15.792 67.2287 15.724 67.6847 15.588C68.1487 15.444 68.5967 15.248 69.0287 15L69.2927 17.52C68.8767 17.736 68.3727 17.908 67.7807 18.036C67.1967 18.172 66.5807 18.24 65.9327 18.24ZM76.6408 18.24C75.3368 18.24 74.2248 17.956 73.3048 17.388C72.3848 16.82 71.6808 16.064 71.1928 15.12C70.7128 14.176 70.4728 13.144 70.4728 12.024C70.4728 10.896 70.7128 9.856 71.1928 8.904C71.6808 7.952 72.3848 7.192 73.3048 6.624C74.2248 6.048 75.3368 5.76 76.6408 5.76C77.9448 5.76 79.0568 6.048 79.9768 6.624C80.8968 7.192 81.5968 7.952 82.0768 8.904C82.5648 9.856 82.8088 10.896 82.8088 12.024C82.8088 13.144 82.5648 14.176 82.0768 15.12C81.5968 16.064 80.8968 16.82 79.9768 17.388C79.0568 17.956 77.9448 18.24 76.6408 18.24ZM76.6408 15.792C77.6408 15.792 78.4088 15.444 78.9448 14.748C79.4888 14.044 79.7608 13.136 79.7608 12.024C79.7608 10.896 79.4888 9.98 78.9448 9.276C78.4088 8.564 77.6408 8.208 76.6408 8.208C75.6488 8.208 74.8808 8.564 74.3368 9.276C73.7928 9.98 73.5208 10.896 73.5208 12.024C73.5208 13.136 73.7928 14.044 74.3368 14.748C74.8808 15.444 75.6488 15.792 76.6408 15.792ZM87.9523 18.24C87.2403 18.24 86.6563 18.1 86.2003 17.82C85.7523 17.532 85.4203 17.152 85.2043 16.68C84.9883 16.2 84.8803 15.672 84.8803 15.096V-1.43051e-06H87.8563V13.872C87.8563 14.512 87.8923 14.968 87.9643 15.24C88.0443 15.504 88.1883 15.664 88.3963 15.72C88.6043 15.768 88.9043 15.792 89.2963 15.792L89.0323 18.24H87.9523ZM94.257 18.24C93.545 18.24 92.961 18.1 92.505 17.82C92.057 17.532 91.725 17.152 91.509 16.68C91.293 16.2 91.185 15.672 91.185 15.096V-1.43051e-06H94.161V13.872C94.161 14.512 94.197 14.968 94.269 15.24C94.349 15.504 94.493 15.664 94.701 15.72C94.909 15.768 95.209 15.792 95.601 15.792L95.337 18.24H94.257ZM100.082 18.24C99.4417 18.24 98.8577 18.1 98.3297 17.82C97.8017 17.532 97.3817 17.12 97.0697 16.584C96.7577 16.048 96.6017 15.4 96.6017 14.64C96.6017 13.96 96.7577 13.38 97.0697 12.9C97.3897 12.412 97.8057 12.008 98.3177 11.688C98.8377 11.36 99.3977 11.104 99.9977 10.92C100.606 10.728 101.202 10.588 101.786 10.5C102.378 10.412 102.898 10.36 103.346 10.344C103.314 9.656 103.138 9.156 102.818 8.844C102.498 8.532 101.954 8.376 101.186 8.376C100.65 8.376 100.126 8.452 99.6137 8.604C99.1097 8.748 98.5377 8.976 97.8977 9.288L97.6337 6.864C98.3537 6.512 99.0737 6.248 99.7937 6.072C100.522 5.896 101.258 5.808 102.002 5.808C102.898 5.808 103.67 5.968 104.318 6.288C104.966 6.608 105.466 7.124 105.818 7.836C106.17 8.54 106.346 9.472 106.346 10.632V13.872C106.346 14.472 106.374 14.908 106.43 15.18C106.486 15.444 106.59 15.612 106.742 15.684C106.894 15.756 107.114 15.792 107.402 15.792H107.786L107.522 18.24H106.442C105.994 18.24 105.594 18.18 105.242 18.06C104.898 17.948 104.602 17.788 104.354 17.58C104.106 17.372 103.906 17.128 103.754 16.848C103.362 17.288 102.83 17.632 102.158 17.88C101.494 18.12 100.802 18.24 100.082 18.24ZM101.33 15.96C101.594 15.96 101.922 15.892 102.314 15.756C102.706 15.612 103.058 15.392 103.37 15.096V12.36C102.81 12.384 102.25 12.476 101.69 12.636C101.13 12.796 100.662 13.032 100.286 13.344C99.9097 13.656 99.7217 14.048 99.7217 14.52C99.7217 15.008 99.8497 15.372 100.106 15.612C100.362 15.844 100.77 15.96 101.33 15.96ZM115.683 18.24C114.771 18.24 113.983 18.092 113.319 17.796C112.655 17.5 112.035 17.096 111.459 16.584L112.347 15.96L112.203 18H109.419V-1.43051e-06H112.395V7.992L111.675 7.536C112.203 6.992 112.791 6.568 113.439 6.264C114.095 5.96 114.843 5.808 115.683 5.808C116.859 5.808 117.847 6.092 118.647 6.66C119.447 7.228 120.051 7.984 120.459 8.928C120.875 9.872 121.083 10.904 121.083 12.024C121.083 13.144 120.875 14.176 120.459 15.12C120.051 16.064 119.447 16.82 118.647 17.388C117.847 17.956 116.859 18.24 115.683 18.24ZM115.251 15.792C115.843 15.792 116.347 15.632 116.763 15.312C117.179 14.992 117.495 14.552 117.711 13.992C117.927 13.424 118.035 12.768 118.035 12.024C118.035 11.28 117.927 10.628 117.711 10.068C117.495 9.5 117.179 9.056 116.763 8.736C116.347 8.416 115.843 8.256 115.251 8.256C114.555 8.256 113.987 8.416 113.547 8.736C113.107 9.056 112.779 9.5 112.563 10.068C112.355 10.628 112.251 11.28 112.251 12.024C112.251 12.768 112.355 13.424 112.563 13.992C112.779 14.552 113.107 14.992 113.547 15.312C113.987 15.632 114.555 15.792 115.251 15.792Z" fill="white"/>
<path d="M54.7563 18V14.736H57.8763V18H54.7563Z" fill="white"/>
<path d="M54.7563 18V14.736H57.8763V18H54.7563Z" fill="#1ECA8C"/>
</svg>
